<?xml version="1.0" standalone="no"?>
<!DOCTYPE svg PUBLIC "-//W3C//DTD SVG 20010904//EN"
 "http://www.w3.org/TR/2001/REC-SVG-20010904/DTD/svg10.dtd">
<svg version="1.0" xmlns="http://www.w3.org/2000/svg"
 width="50.000000pt" height="50.000000pt" viewBox="0 0 50.000000 50.000000"
 preserveAspectRatio="xMidYMid meet">

<g transform="translate(0.000000,50.000000) scale(0.100000,-0.100000)"
fill="#000000" stroke="none">
<path d="M370 484 c0 -12 -6 -15 -24 -10 -28 7 -49 -13 -40 -38 4 -10 0 -18
-10 -22 -21 -8 -21 -44 0 -44 12 0 15 -6 11 -22 -8 -30 10 -49 39 -42 18 5 24
2 24 -10 0 -21 36 -21 44 0 4 10 12 14 22 10 25 -9 45 12 38 40 -5 18 -2 24
10 24 21 0 21 36 0 44 -10 4 -13 13 -9 25 7 22 -16 44 -39 35 -10 -4 -18 0
-22 10 -8 21 -44 21 -44 0z m43 -35 c7 -1 18 -1 26 0 7 2 10 -2 7 -7 -9 -16 4
-42 22 -42 12 0 11 -4 -6 -20 -12 -11 -19 -27 -16 -35 4 -11 2 -13 -9 -10 -8
4 -22 -1 -31 -10 -14 -15 -18 -15 -31 -1 -9 8 -23 12 -32 9 -12 -5 -15 -2 -10
10 4 11 -2 24 -15 37 -18 17 -19 20 -5 20 17 0 21 11 17 39 -1 9 4 12 15 8 9
-4 22 2 33 14 14 16 18 17 20 4 2 -8 9 -16 15 -16z"/>
<path d="M360 415 c-26 -32 13 -81 48 -59 22 14 27 41 12 59 -16 19 -44 19
-60 0z m46 -16 c10 -17 -13 -36 -27 -22 -12 12 -4 33 11 33 5 0 12 -5 16 -11z"/>
<path d="M24 437 c-2 -7 -3 -80 -2 -162 l3 -150 83 -3 c62 -2 82 -6 82 -17 0
-8 -12 -15 -27 -17 -20 -2 -29 -9 -31 -25 -3 -23 -2 -23 118 -23 120 0 121 0
118 23 -2 16 -11 23 -30 25 -16 2 -28 9 -28 17 0 11 20 15 83 17 l82 3 3 83
c2 56 -1 82 -8 77 -5 -3 -10 -24 -10 -46 l0 -39 -210 0 -210 0 0 115 0 115
115 0 c70 0 115 4 115 10 0 16 -239 13 -246 -3z m436 -277 c0 -19 -7 -20 -210
-20 -203 0 -210 1 -210 20 0 19 7 20 210 20 203 0 210 -1 210 -20z m-170 -55
c0 -11 -11 -15 -40 -15 -29 0 -40 4 -40 15 0 11 11 15 40 15 29 0 40 -4 40
-15z m13 -42 c-29 -2 -77 -2 -105 0 -29 2 -6 3 52 3 58 0 81 -1 53 -3z"/>
<path d="M410 160 c0 -5 5 -10 10 -10 6 0 10 5 10 10 0 6 -4 10 -10 10 -5 0
-10 -4 -10 -10z"/>
</g>
</svg>
