<svg xmlns="http://www.w3.org/2000/svg"  viewBox="0 0 50 50" width="50px" height="50px"><path d="M44.417 12.185c0 0-4-1.832-4-1.832-.105-.048-.22-.076-.335-.084-.109-.007-.212.021-.319.021 0 0-4.748 1.159-4.748 1.159v2.059L39 12.536v24.929l-3.985-.973v2.059c0 0 4.747 1.159 4.748 1.159.105.026.219.03.328.016.104-.013.23-.035.326-.079l4-1.832C44.772 37.653 45 37.297 45 36.906V13.094C45 12.703 44.772 12.347 44.417 12.185zM43 36.264l-2 .916V12.82l2 .916V36.264zM32.169 19.919c0 0-7.015-1.091-7.015-1.091-.053-.008-.257-.008-.308 0 0 0-7.015 1.091-7.015 1.091-.487.076-.846.495-.846.988v7.794c0 .493.359.912.846.988 0 0 7.015 1.091 7.015 1.091.099.015.208.015.308 0l7.015-1.091c.487-.076.846-.495.846-.988v-7.794C33.015 20.415 32.656 19.995 32.169 19.919zM18.985 21.764L24 20.984v7.642l-5.015-.78V21.764zM31.015 27.846L26 28.626v-7.642l5.015.78V27.846zM32.448 5.47c0 0-7.015-3.371-7.015-3.371-.262-.126-.605-.125-.866 0 0 0-7.015 3.371-7.015 3.371-.347.167-.567.517-.567.901 0 0 0 8.724 0 8.73 0 .441.336.869.768.973l7.015 1.676c.077.018.154.027.232.027s.156-.009.232-.027c0 0 7.007-1.674 7.015-1.676.421-.101.768-.538.768-.973 0 0 0-8.73 0-8.73C33.015 5.987 32.795 5.636 32.448 5.47zM31.015 13.761L26 12.27V4.59L31.015 7V13.761zM18.985 7L24 4.59v7.68l-5.015 1.491V7zM25 15.749l-3.151-.753L25 14.059l3.151.937L25 15.749zM32.944 34.545c-.121-.299-.385-.544-.697-.618 0 0-7.015-1.676-7.015-1.676-.153-.036-.312-.036-.465 0 0 0-7.015 1.676-7.015 1.676-.214.051-.405.182-.539.356-.126.163-.228.408-.228.617v8.73c0 .384.22.735.567.901 0 0 7.006 3.367 7.015 3.371.265.127.601.128.866 0 0 0 7.015-3.371 7.015-3.371.347-.167.567-.517.567-.901 0 0 0-8.73 0-8.73C33.015 34.777 32.99 34.657 32.944 34.545zM25 34.251l3.151.753L25 35.941l-3.151-.937L25 34.251zM18.985 36.239L24 37.73v7.68L18.985 43V36.239zM31.015 43L26 45.41v-7.68l5.015-1.491V43zM10.201 10.283c-.201-.04-.434-.014-.618.07 0 0-4 1.832-4 1.832C5.228 12.347 5 12.703 5 13.094v23.813c0 .391.228.747.583.909 0 0 4 1.832 4 1.832.202.093.439.115.654.062 0 0 4.748-1.159 4.748-1.159v-2.059L11 37.464V12.536l3.985.973V11.45c0 0-4.736-1.157-4.748-1.159C10.225 10.288 10.213 10.285 10.201 10.283zM7 13.736l2-.916v24.36l-2-.916V13.736z"/></svg>